<svg width="250" height="250" viewBox="0 0 250 250" fill="none" xmlns="http://www.w3.org/2000/svg">
<path fill-rule="evenodd" clip-rule="evenodd" d="M225 124.863C225 180.092 180.228 224.863 125 224.863C69.7715 224.863 25 180.092 25 124.863C25 69.6348 69.7715 24.8633 125 24.8633C180.228 24.8633 225 69.6348 225 124.863ZM125 214.863C174.706 214.863 215 174.569 215 124.863C215 75.1577 174.706 34.8633 125 34.8633C75.2944 34.8633 35 75.1577 35 124.863C35 174.569 75.2944 214.863 125 214.863Z" fill="#5D6168"/>
<path d="M85 72.8711H165M125 72.8711V162.871M105 162.871H145M85 182.871V145.371C85 132.872 95.1239 132.872 105.124 132.871H145.123C155.123 132.871 165 132.871 165 145.371V182.871M145 152.871V172.871M85.6508 103.025C85.6508 103.025 85.7444 115.859 95.0002 115.859C104.256 115.859 145 115.859 155 115.859C165 115.859 165.604 103.025 165.604 103.025C165.604 103.025 165.774 89.8633 155 89.8633C144.227 89.8633 105 89.8633 95.0002 89.8633C85.0001 89.8633 85.6508 103.025 85.6508 103.025Z" stroke="#5D6168" stroke-width="10" stroke-linecap="round"/>
</svg>
